<svg xmlns="http://www.w3.org/2000/svg" xmlns:xlink="http://www.w3.org/1999/xlink" version="1.0" x="0px" y="0px" viewBox="0 0 74 92.5" style="enable-background:new 0 0 74 74;" xml:space="preserve"><g><path d="M34.81,48.85V25.14c0-1.61-1.31-2.93-2.93-2.93H8.18c-1.61,0-2.93,1.31-2.93,2.93v23.71c0,1.61,1.31,2.93,2.93,2.93h23.71   C33.5,51.78,34.81,50.46,34.81,48.85z M14.73,25.14c0,0.39-0.31,0.7-0.7,0.7c-0.39,0-0.7-0.32-0.7-0.7c0-0.39,0.31-0.7,0.7-0.7   C14.42,24.44,14.73,24.75,14.73,25.14z M12.36,25.14c0,0.39-0.31,0.7-0.7,0.7c-0.39,0-0.7-0.32-0.7-0.7c0-0.39,0.31-0.7,0.7-0.7   C12.05,24.44,12.36,24.75,12.36,25.14z M9.98,25.14c0,0.39-0.31,0.7-0.7,0.7c-0.39,0-0.7-0.32-0.7-0.7c0-0.39,0.31-0.7,0.7-0.7   C9.67,24.44,9.98,24.75,9.98,25.14z M6.75,48.85V27.14l15.65,0.1c0.27,0,0.53,0.11,0.71,0.31l0.74,0.79   c0.19,0.2,0.44,0.31,0.72,0.31h2.02c0.25,0,0.49-0.09,0.67-0.26l0.97-0.9c0.18-0.16,0.41-0.26,0.65-0.26l4.45-0.09v21.7   c0,0.79-0.64,1.43-1.43,1.43H8.18C7.39,50.28,6.75,49.64,6.75,48.85z"/><path d="M8.48,36.74h4.17c0.28,0,0.5-0.22,0.5-0.5s-0.22-0.5-0.5-0.5H8.48c-0.28,0-0.5,0.22-0.5,0.5S8.2,36.74,8.48,36.74z"/><path d="M8.48,34.98h5.21c0.28,0,0.5-0.22,0.5-0.5v-4.43c0-0.28-0.22-0.5-0.5-0.5H8.48c-0.28,0-0.5,0.22-0.5,0.5v4.43   C7.98,34.76,8.2,34.98,8.48,34.98z M8.98,30.55h4.21v3.43H8.98V30.55z"/><path d="M13.81,37.92c0-0.28-0.22-0.5-0.5-0.5H8.48c-0.28,0-0.5,0.22-0.5,0.5s0.22,0.5,0.5,0.5h4.84   C13.59,38.42,13.81,38.2,13.81,37.92z"/><path d="M17.42,36.74h4.17c0.28,0,0.5-0.22,0.5-0.5s-0.22-0.5-0.5-0.5h-4.17c-0.28,0-0.5,0.22-0.5,0.5S17.15,36.74,17.42,36.74z"/><path d="M17.42,34.98h5.21c0.28,0,0.5-0.22,0.5-0.5v-4.43c0-0.28-0.22-0.5-0.5-0.5h-5.21c-0.28,0-0.5,0.22-0.5,0.5v4.43   C16.92,34.76,17.15,34.98,17.42,34.98z M17.92,30.55h4.21v3.43h-4.21V30.55z"/><path d="M17.42,38.42h4.84c0.28,0,0.5-0.22,0.5-0.5s-0.22-0.5-0.5-0.5h-4.84c-0.28,0-0.5,0.22-0.5,0.5S17.15,38.42,17.42,38.42z"/><path d="M26.37,36.74h4.17c0.28,0,0.5-0.22,0.5-0.5s-0.22-0.5-0.5-0.5h-4.17c-0.28,0-0.5,0.22-0.5,0.5S26.09,36.74,26.37,36.74z"/><path d="M26.37,34.98h5.21c0.28,0,0.5-0.22,0.5-0.5v-4.43c0-0.28-0.22-0.5-0.5-0.5h-5.21c-0.28,0-0.5,0.22-0.5,0.5v4.43   C25.87,34.76,26.09,34.98,26.37,34.98z M26.87,30.55h4.21v3.43h-4.21V30.55z"/><path d="M31.21,37.42h-4.83c-0.28,0-0.5,0.22-0.5,0.5s0.22,0.5,0.5,0.5h4.83c0.28,0,0.5-0.22,0.5-0.5S31.48,37.42,31.21,37.42z"/><path d="M26.47,40.64H13.59c-0.73,0-1.33,0.67-1.33,1.5v4.96c0,0.83,0.6,1.5,1.33,1.5h12.88c0.73,0,1.33-0.67,1.33-1.5v-4.96   C27.81,41.32,27.21,40.64,26.47,40.64z M26.81,47.1c0,0.29-0.18,0.5-0.33,0.5H13.59c-0.16,0-0.33-0.21-0.33-0.5v-4.96   c0-0.29,0.17-0.5,0.33-0.5h12.88c0.16,0,0.33,0.21,0.33,0.5V47.1z"/><path d="M19.68,43.11c-0.09-0.08-0.2-0.12-0.32-0.12c-0.27,0-0.49,0.22-0.49,0.49v2.28c0,0.27,0.22,0.49,0.49,0.49   c0.12,0,0.23-0.04,0.32-0.12L21.03,45c0.11-0.1,0.17-0.23,0.17-0.38c0-0.15-0.06-0.28-0.17-0.38L19.68,43.11z"/><path d="M65.82,22.21H42.12c-1.61,0-2.93,1.31-2.93,2.93v23.71c0,1.61,1.31,2.93,2.93,2.93h23.71c1.61,0,2.93-1.31,2.93-2.93V25.14   C68.75,23.53,67.44,22.21,65.82,22.21z M48.67,25.14c0,0.39-0.31,0.7-0.7,0.7c-0.39,0-0.7-0.32-0.7-0.7c0-0.39,0.31-0.7,0.7-0.7   C48.36,24.44,48.67,24.75,48.67,25.14z M46.3,25.14c0,0.39-0.31,0.7-0.7,0.7c-0.39,0-0.7-0.32-0.7-0.7c0-0.39,0.31-0.7,0.7-0.7   C45.98,24.44,46.3,24.75,46.3,25.14z M43.92,25.14c0,0.39-0.31,0.7-0.7,0.7c-0.39,0-0.7-0.32-0.7-0.7c0-0.39,0.31-0.7,0.7-0.7   C43.61,24.44,43.92,24.75,43.92,25.14z M65.82,50.28H42.12c-0.79,0-1.43-0.64-1.43-1.43V27.14l15.65,0.1   c0.27,0,0.53,0.11,0.71,0.31l0.74,0.79c0.19,0.2,0.44,0.31,0.72,0.31h2.02c0.25,0,0.49-0.09,0.67-0.26l0.97-0.9   c0.18-0.16,0.41-0.26,0.65-0.26l4.45-0.09v21.7C67.25,49.64,66.61,50.28,65.82,50.28z"/><path d="M47.53,37.96h12.88c0.73,0,1.33-0.67,1.33-1.5V31.5c0-0.83-0.6-1.5-1.33-1.5H47.53c-0.73,0-1.33,0.67-1.33,1.5v4.96   C46.19,37.29,46.79,37.96,47.53,37.96z M47.19,31.5c0-0.29,0.18-0.5,0.33-0.5h12.88c0.16,0,0.33,0.21,0.33,0.5v4.96   c0,0.29-0.17,0.5-0.33,0.5H47.53c-0.16,0-0.33-0.21-0.33-0.5V31.5z"/><path d="M53.29,35.61c0.12,0,0.23-0.04,0.32-0.12l1.35-1.13c0.11-0.1,0.17-0.23,0.17-0.38c0-0.15-0.06-0.28-0.17-0.38l-1.35-1.13   c-0.09-0.08-0.2-0.12-0.32-0.12c-0.27,0-0.49,0.22-0.49,0.49v2.28C52.8,35.39,53.02,35.61,53.29,35.61z"/><path d="M42.42,46.49h4.17c0.28,0,0.5-0.22,0.5-0.5s-0.22-0.5-0.5-0.5h-4.17c-0.28,0-0.5,0.22-0.5,0.5S42.14,46.49,42.42,46.49z"/><path d="M47.63,39.3h-5.21c-0.28,0-0.5,0.22-0.5,0.5v4.43c0,0.28,0.22,0.5,0.5,0.5h5.21c0.28,0,0.5-0.22,0.5-0.5V39.8   C48.13,39.52,47.91,39.3,47.63,39.3z M47.13,43.73h-4.21V40.3h4.21V43.73z"/><path d="M47.25,47.18h-4.83c-0.28,0-0.5,0.22-0.5,0.5s0.22,0.5,0.5,0.5h4.83c0.28,0,0.5-0.22,0.5-0.5S47.53,47.18,47.25,47.18z"/><path d="M51.36,46.49h4.17c0.28,0,0.5-0.22,0.5-0.5s-0.22-0.5-0.5-0.5h-4.17c-0.28,0-0.5,0.22-0.5,0.5S51.09,46.49,51.36,46.49z"/><path d="M56.58,39.3h-5.21c-0.28,0-0.5,0.22-0.5,0.5v4.43c0,0.28,0.22,0.5,0.5,0.5h5.21c0.28,0,0.5-0.22,0.5-0.5V39.8   C57.08,39.52,56.85,39.3,56.58,39.3z M56.08,43.73h-4.21V40.3h4.21V43.73z"/><path d="M56.2,47.18h-4.84c-0.28,0-0.5,0.22-0.5,0.5s0.22,0.5,0.5,0.5h4.84c0.28,0,0.5-0.22,0.5-0.5S56.47,47.18,56.2,47.18z"/><path d="M60.31,46.49h4.17c0.28,0,0.5-0.22,0.5-0.5s-0.22-0.5-0.5-0.5h-4.17c-0.28,0-0.5,0.22-0.5,0.5S60.03,46.49,60.31,46.49z"/><path d="M65.52,39.3h-5.21c-0.28,0-0.5,0.22-0.5,0.5v4.43c0,0.28,0.22,0.5,0.5,0.5h5.21c0.28,0,0.5-0.22,0.5-0.5V39.8   C66.02,39.52,65.8,39.3,65.52,39.3z M65.02,43.73h-4.21V40.3h4.21V43.73z"/><path d="M65.14,47.18h-4.84c-0.28,0-0.5,0.22-0.5,0.5s0.22,0.5,0.5,0.5h4.84c0.28,0,0.5-0.22,0.5-0.5S65.42,47.18,65.14,47.18z"/><path d="M53.89,55.23h-3.86c-0.28,0-0.5,0.22-0.5,0.5s0.22,0.5,0.5,0.5h2.76c-9.02,8.71-23.43,8.63-32.32-0.27   c-0.2-0.2-0.51-0.2-0.71,0s-0.2,0.51,0,0.71c4.69,4.69,10.86,7.04,17.02,7.04c5.99,0,11.98-2.24,16.62-6.68v2.57   c0,0.28,0.22,0.5,0.5,0.5s0.5-0.22,0.5-0.5v-3.86C54.39,55.45,54.17,55.23,53.89,55.23z"/><path d="M20.11,18.76h3.86c0.28,0,0.5-0.22,0.5-0.5s-0.22-0.5-0.5-0.5h-2.76c9.02-8.71,23.43-8.63,32.32,0.27   c0.1,0.1,0.23,0.15,0.35,0.15s0.26-0.05,0.35-0.15c0.2-0.2,0.2-0.51,0-0.71c-9.26-9.26-24.23-9.36-33.64-0.36V14.4   c0-0.28-0.22-0.5-0.5-0.5s-0.5,0.22-0.5,0.5v3.86C19.61,18.54,19.83,18.76,20.11,18.76z"/></g></svg>
