<?xml version="1.0" standalone="no"?>
<!DOCTYPE svg PUBLIC "-//W3C//DTD SVG 20010904//EN"
 "http://www.w3.org/TR/2001/REC-SVG-20010904/DTD/svg10.dtd">
<svg version="1.0" xmlns="http://www.w3.org/2000/svg"
 width="300.000000pt" height="143.000000pt" viewBox="0 0 300.000000 143.000000"
 preserveAspectRatio="xMidYMid meet">
<metadata>
Created by potrace 1.10, written by Peter Selinger 2001-2011
</metadata>
<g transform="translate(0.000000,143.000000) scale(0.100000,-0.100000)"
fill="#000000" stroke="none">
<path d="M575 1226 c-38 -12 -69 -23 -127 -49 -15 -6 -24 -15 -22 -19 3 -4 0
-8 -7 -8 -6 0 -31 -20 -54 -45 -120 -130 -205 -441 -170 -625 11 -59 39 -119
69 -152 12 -12 20 -26 19 -29 -1 -4 11 -12 27 -19 17 -7 30 -19 30 -27 0 -8 4
-12 9 -9 5 3 26 -1 47 -10 49 -21 210 -13 247 11 13 8 27 12 32 8 4 -5 5 -3 2
3 -3 6 11 24 32 40 36 27 111 122 111 141 0 5 7 18 16 29 8 10 13 14 10 7 -4
-6 -2 -13 4 -15 5 -1 11 -12 13 -23 2 -11 11 -37 20 -59 9 -21 17 -41 17 -44
0 -11 61 -62 75 -62 8 0 15 -4 15 -9 0 -4 25 -16 56 -26 45 -14 73 -16 138
-10 44 4 87 7 94 8 6 0 12 3 12 6 0 4 16 15 35 25 28 15 37 17 50 6 11 -9 15
-9 15 -1 0 7 12 38 26 69 15 31 35 77 44 102 10 25 39 97 65 160 26 63 55 135
65 161 10 25 31 74 47 110 16 35 54 124 83 197 l54 132 163 0 c123 0 163 -3
164 -12 1 -26 1 -551 0 -735 l-1 -192 -111 -3 c-67 -2 -114 1 -117 7 -4 6 -7
30 -7 55 l0 45 -80 3 c-114 4 -121 1 -135 -58 -8 -34 -17 -50 -28 -51 -10 0
-47 0 -84 1 -72 1 -140 -8 -134 -19 3 -4 55 -6 116 -5 114 2 134 8 146 46 12
40 40 57 99 59 62 3 75 -6 75 -52 0 -46 27 -51 273 -53 155 -1 231 2 242 10
13 10 28 83 29 152 1 18 7 22 36 22 39 0 170 39 170 50 0 4 10 10 23 14 62 15
187 188 203 281 11 60 16 205 8 222 -4 10 -9 25 -10 33 -4 29 -24 70 -34 70
-5 0 -10 6 -10 13 0 22 -65 74 -115 93 -36 12 -91 19 -195 22 -173 5 -169 7
-194 -113 -10 -44 -21 -96 -26 -115 -5 -19 -19 -82 -31 -140 -37 -185 -48
-234 -63 -280 -13 -41 -14 -18 -15 280 -1 277 -3 329 -17 348 -15 21 -21 22
-179 22 l-164 0 -20 -26 c-12 -15 -21 -31 -21 -36 0 -5 -13 -35 -29 -68 -16
-32 -32 -69 -36 -82 -9 -30 -30 -79 -66 -156 -16 -34 -29 -67 -29 -74 0 -6
-11 -34 -24 -62 -13 -28 -34 -75 -46 -104 -25 -55 -43 -63 -48 -21 -7 54 -69
174 -110 210 -48 42 -101 126 -95 150 8 29 33 23 39 -10 8 -36 23 -41 139 -41
120 0 135 10 135 91 0 32 -4 59 -9 59 -5 0 -12 15 -15 34 -15 81 -138 156
-254 156 -54 0 -183 -35 -190 -52 -2 -5 -9 -8 -16 -8 -21 0 -81 -82 -98 -137
-16 -51 -21 -113 -16 -198 l3 -40 -115 -2 c-63 -1 -140 -2 -171 -3 -74 0 -93
-19 -109 -105 -11 -58 -10 -68 4 -84 23 -25 20 -41 -14 -78 -37 -41 -55 -41
-75 -4 -15 29 -15 53 0 156 15 105 57 225 80 225 6 0 16 9 23 20 7 11 21 20
31 20 15 0 22 -10 28 -42 l9 -43 122 -3 c67 -1 122 1 122 6 0 4 -51 8 -112 8
l-113 1 -6 43 c-16 122 -132 59 -179 -98 -34 -115 -45 -216 -32 -279 13 -64
26 -83 56 -83 30 0 61 31 91 90 31 62 31 70 0 70 -14 0 -25 6 -24 13 1 25 24
122 32 135 6 9 57 12 197 12 194 0 212 -4 190 -40 -5 -8 -12 -36 -15 -62 -8
-56 -15 -62 -75 -63 -40 0 -45 -3 -54 -30 -26 -87 -89 -199 -139 -249 -74 -74
-114 -90 -217 -91 -124 0 -192 40 -244 144 -69 137 -51 363 44 566 82 175 218
266 376 252 140 -13 206 -91 229 -270 9 -70 27 -48 21 26 -11 148 -86 236
-224 266 -62 13 -73 13 -127 -3z m793 -22 c100 -29 166 -121 175 -244 l2 -35
-117 -3 -118 -3 0 26 c0 42 -17 65 -50 65 -55 0 -64 -66 -18 -133 12 -17 44
-54 70 -82 25 -27 63 -82 83 -122 30 -59 37 -84 37 -135 2 -94 -25 -162 -87
-224 -48 -48 -56 -52 -126 -64 -92 -16 -175 -2 -234 38 -54 37 -97 122 -99
193 l-1 54 115 0 115 0 5 -40 c4 -32 9 -41 28 -43 37 -5 55 17 49 59 -5 37
-66 138 -106 173 -12 11 -40 53 -63 95 -36 66 -42 83 -42 140 -1 98 19 155 74
210 81 81 193 108 308 75z m1265 -24 c47 -14 112 -71 137 -120 32 -62 43 -151
30 -238 -29 -190 -142 -321 -317 -368 -55 -15 -75 -16 -136 -6 -39 6 -73 9
-75 7 -10 -9 12 -25 48 -36 21 -7 41 -17 43 -23 2 -6 -1 -40 -6 -76 l-10 -65
-111 3 c-61 2 -113 6 -115 8 -5 5 37 216 110 551 32 150 62 298 65 329 l7 57
146 -6 c80 -3 163 -11 184 -17z m-1543 -538 c22 -24 40 -50 40 -57 0 -7 6 -18
14 -24 8 -7 13 -22 11 -33 -6 -28 -15 -36 -15 -12 0 34 -21 44 -89 44 -80 0
-141 9 -141 21 0 5 7 9 15 9 28 0 65 23 65 41 0 10 5 21 10 24 6 3 10 14 10
25 0 30 36 13 80 -38z"/>
<path d="M2386 992 c-8 -14 1 -19 47 -27 21 -4 41 -14 44 -22 7 -17 -23 -180
-43 -236 -12 -33 -11 -39 1 -44 21 -8 67 14 86 40 18 25 45 103 55 159 7 43
-11 104 -34 117 -28 15 -149 24 -156 13z m153 -78 c5 -19 7 -52 4 -72 -7 -54
-34 -123 -45 -116 -5 3 -16 0 -24 -7 -14 -11 -15 -8 -8 27 3 21 11 47 15 56 5
9 9 33 9 53 0 20 7 49 15 64 8 16 11 32 7 36 -4 5 -2 5 5 1 7 -4 17 -22 22
-42z"/>
<path d="M1873 933 c-4 -10 -30 -85 -58 -168 -28 -82 -55 -158 -59 -167 -7
-16 -2 -18 53 -18 57 0 61 2 61 23 1 48 19 264 26 305 4 29 3 42 -5 42 -6 0
-15 -8 -18 -17z m-17 -215 c-8 -69 -21 -113 -31 -108 -6 3 -9 9 -7 13 1 5 -2
6 -7 3 -5 -4 -12 -2 -16 4 -3 5 -1 10 6 10 7 0 10 3 6 6 -10 11 35 114 50 114
2 0 2 -19 -1 -42z"/>
</g>
</svg>
