<svg version="1.0" xmlns="http://www.w3.org/2000/svg"
 width="1920.000000pt" height="3652.000000pt" viewBox="0 0 1920.000000 3652.000000"
 preserveAspectRatio="xMidYMid meet">
<metadata>
Created by potrace 1.16, written by Peter Selinger 2001-2019
</metadata>
<g transform="translate(0.000000,3652.000000) scale(0.100000,-0.100000)"
fill="#000000" stroke="none">
<path d="M7910 34940 c-162 -12 -215 -28 -325 -102 -143 -96 -233 -215 -285
-378 -21 -64 -25 -94 -24 -205 0 -108 4 -142 23 -200 13 -38 27 -74 32 -80 5
-5 9 -15 9 -23 0 -19 54 -97 109 -157 56 -62 160 -140 226 -170 115 -53 9 -50
2075 -50 l1925 0 87 35 c49 19 117 56 152 81 128 94 244 261 277 399 19 76 16
279 -5 355 -59 219 -250 411 -479 483 -47 14 -222 16 -1872 17 -1001 1 -1867
-1 -1925 -5z"/>
</svg>