<?xml version="1.0" standalone="no"?>
<!DOCTYPE svg PUBLIC "-//W3C//DTD SVG 20010904//EN"
 "http://www.w3.org/TR/2001/REC-SVG-20010904/DTD/svg10.dtd">
<svg version="1.0" xmlns="http://www.w3.org/2000/svg"
 width="512.000000pt" height="512.000000pt" viewBox="0 0 512.000000 512.000000"
 preserveAspectRatio="xMidYMid meet">

<g transform="translate(0.000000,512.000000) scale(0.100000,-0.100000)"
fill="#000000" stroke="none">
<path d="M2224 5025 c-279 -43 -528 -194 -669 -407 l-38 -58 -81 0 c-162 0
-339 -41 -481 -112 -110 -55 -187 -112 -270 -200 -84 -88 -136 -174 -172 -283
-24 -71 -27 -96 -27 -216 l0 -136 -37 -21 c-114 -66 -225 -191 -290 -327 -57
-119 -74 -191 -73 -320 1 -91 5 -124 27 -190 36 -108 88 -195 172 -283 152
-161 342 -259 579 -297 68 -11 183 -15 454 -15 l362 0 0 -80 0 -80 -55 0 c-46
0 -60 -4 -80 -25 l-25 -24 0 -351 0 -351 25 -24 24 -25 376 0 375 0 0 -199 0
-199 -41 -41 -41 -41 -1055 0 -1054 0 -24 -25 c-25 -24 -25 -26 -25 -215 0
-189 0 -191 25 -215 l24 -25 1054 0 1053 0 49 -46 c26 -26 78 -60 114 -78 60
-28 75 -31 162 -31 90 0 99 2 171 37 44 22 91 55 112 78 l36 40 1055 0 1056 0
24 25 c25 24 25 26 25 215 0 189 0 191 -25 215 l-24 25 -1054 0 -1055 0 -41
41 -41 41 0 199 0 199 375 0 376 0 24 25 25 24 0 351 0 351 -25 24 c-20 21
-34 25 -80 25 l-55 0 0 79 0 80 403 4 c440 4 470 7 632 69 135 52 230 113 335
218 107 107 157 185 197 305 23 69 27 97 27 205 0 111 -3 134 -28 205 -85 247
-289 439 -569 537 -44 15 -66 27 -62 36 2 7 10 42 16 79 24 140 -11 320 -88
453 -47 79 -157 198 -239 256 -218 156 -511 223 -789 181 l-80 -13 -67 62
c-244 227 -564 322 -904 269z m371 -164 c175 -36 317 -115 444 -246 41 -42 82
-80 93 -86 14 -7 39 -6 90 6 450 102 917 -131 1004 -501 20 -87 14 -197 -16
-279 -33 -89 -34 -107 -11 -137 16 -19 37 -30 79 -38 158 -33 322 -119 427
-225 321 -325 177 -803 -293 -975 -139 -51 -223 -60 -533 -60 l-279 0 0 295 0
296 -25 24 -24 25 -991 0 -991 0 -24 -25 -25 -24 0 -296 0 -295 -279 0 c-307
0 -391 9 -529 58 -232 82 -409 262 -457 463 -59 251 71 499 338 649 77 43 83
59 63 148 -20 88 -20 158 -1 241 74 313 443 542 835 518 113 -7 128 -1 164 71
129 253 412 408 751 411 61 0 135 -6 190 -18z m845 -2301 l0 -240 -880 0 -880
0 0 240 0 240 880 0 880 0 0 -240z m-160 -480 l0 -80 -720 0 -720 0 0 80 0 80
720 0 720 0 0 -80z m160 -480 l0 -240 -880 0 -880 0 0 240 0 240 880 0 880 0
0 -240z m-800 -562 l0 -163 -80 0 -80 0 0 163 0 162 80 0 80 0 0 -162z m-6
-330 c86 -26 166 -136 166 -228 0 -124 -116 -240 -240 -240 -124 0 -240 116
-240 240 0 63 23 114 75 165 70 71 145 90 239 63z m-469 -228 l0 -80 -962 0
-963 0 0 80 0 80 963 0 962 0 0 -80z m2715 0 l0 -80 -962 0 -963 0 0 80 0 80
963 0 962 0 0 -80z"/>
<path d="M1625 4215 c-25 -24 -25 -24 -25 -240 l0 -215 -95 0 c-88 0 -98 -2
-120 -25 -17 -16 -25 -35 -25 -57 0 -29 26 -59 263 -295 242 -243 265 -263
297 -263 32 0 55 20 297 263 237 236 263 266 263 295 0 22 -8 41 -25 57 -22
23 -32 25 -120 25 l-95 0 0 215 c0 216 0 216 -25 240 l-24 25 -271 0 -271 0
-24 -25z m455 -349 c0 -245 3 -254 79 -265 l41 -6 -140 -140 -140 -140 -140
140 -140 140 41 6 c76 11 79 20 79 265 l0 214 160 0 160 0 0 -214z"/>
<path d="M2903 3977 c-237 -236 -263 -266 -263 -295 0 -22 8 -41 25 -57 22
-23 32 -25 120 -25 l95 0 0 -215 c0 -216 0 -216 25 -240 l24 -25 271 0 271 0
24 25 c25 24 25 24 25 240 l0 215 95 0 c88 0 98 2 120 25 17 16 25 35 25 57 0
29 -26 59 -263 295 -242 243 -265 263 -297 263 -32 0 -55 -20 -297 -263z m442
-77 l140 -140 -38 0 c-27 0 -45 -7 -62 -25 -25 -24 -25 -24 -25 -240 l0 -215
-160 0 -160 0 0 215 c0 216 0 216 -25 240 -17 18 -35 25 -62 25 l-38 0 140
140 c77 77 142 140 145 140 3 0 68 -63 145 -140z"/>
<path d="M1840 2560 l0 -80 560 0 560 0 0 80 0 80 -560 0 -560 0 0 -80z"/>
<path d="M3120 2560 l0 -80 80 0 80 0 0 80 0 80 -80 0 -80 0 0 -80z"/>
<path d="M1840 1600 l0 -80 560 0 560 0 0 80 0 80 -560 0 -560 0 0 -80z"/>
<path d="M3120 1600 l0 -80 80 0 80 0 0 80 0 80 -80 0 -80 0 0 -80z"/>
</g>
</svg>
