<?xml version="1.0" standalone="no"?>
<!DOCTYPE svg PUBLIC "-//W3C//DTD SVG 20010904//EN"
 "http://www.w3.org/TR/2001/REC-SVG-20010904/DTD/svg10.dtd">
<svg version="1.0" xmlns="http://www.w3.org/2000/svg"
 width="2464.000000pt" height="3476.000000pt" viewBox="0 0 2464.000000 3476.000000"
 preserveAspectRatio="xMidYMid meet">
<metadata>
Created by potrace 1.16, written by Peter Selinger 2001-2019
</metadata>
<g transform="translate(0.000000,3476.000000) scale(0.100000,-0.100000)"
fill="#000000" stroke="none">
<path d="M1815 34465 c-130 -12 -274 -39 -307 -56 -9 -5 -23 -9 -31 -9 -9 0
-49 -16 -91 -35 -42 -19 -110 -51 -152 -70 -118 -55 -218 -129 -359 -270 -182
-181 -300 -364 -377 -584 -16 -47 -33 -92 -38 -101 -5 -9 -19 -70 -32 -136
l-23 -119 -3 -15625 c-2 -10920 0 -15669 8 -15770 13 -189 24 -249 72 -404 48
-155 133 -326 225 -451 84 -114 246 -275 344 -342 69 -47 245 -153 254 -153 2
0 32 -13 67 -29 120 -56 216 -81 388 -101 55 -7 3731 -10 10635 -10 11258 0
10642 -2 10820 45 274 72 572 261 778 493 60 68 167 212 167 226 0 3 13 27 28
53 58 98 122 264 142 368 6 33 16 80 21 105 5 25 14 97 19 160 14 153 13
31226 -1 31385 -23 264 -77 443 -200 665 -104 187 -302 392 -504 522 -76 49
-228 131 -260 140 -11 4 -47 16 -80 28 -98 36 -233 67 -343 79 -157 17 -20988
13 -21167 -4z m21071 -235 c342 -25 620 -148 854 -380 110 -109 158 -171 227
-290 102 -177 142 -311 163 -543 8 -88 10 -4474 7 -15757 -3 -14449 -5 -15641
-20 -15720 -35 -183 -33 -177 -113 -345 -74 -158 -274 -406 -393 -488 -204
-140 -392 -215 -631 -252 -70 -11 -1935 -14 -10555 -14 -11015 0 -10528 -2
-10750 38 -143 26 -367 130 -507 236 -152 114 -293 289 -388 480 -59 120 -100
242 -100 300 0 17 -5 36 -11 42 -9 9 -11 4018 -11 15740 1 13949 3 15740 16
15833 8 58 25 141 37 185 11 44 23 91 26 105 3 14 11 32 18 40 7 8 25 40 40
70 40 79 141 225 204 293 144 155 364 300 558 365 103 35 194 51 353 61 192
13 20803 13 20976 1z"/>
<path d="M12295 33326 c-136 -51 -235 -192 -235 -335 0 -106 88 -239 191 -289
35 -17 63 -22 127 -22 150 0 248 59 311 186 30 60 35 79 34 144 0 56 -5 85
-21 116 -44 86 -125 163 -211 199 -39 17 -152 18 -196 1z m183 -130 c40 -26
65 -52 103 -106 17 -25 23 -47 23 -85 -1 -62 -13 -86 -73 -148 -59 -62 -88
-77 -149 -77 -38 0 -57 6 -89 30 -42 31 -104 115 -118 158 -15 49 4 109 50
160 80 89 178 116 253 68z"/>
<path d="M1560 31822 l-155 -2 0 -14345 c0 -12263 2 -14345 14 -14347 8 -2
167 0 355 3 188 4 5031 7 10764 7 5733 1 10426 3 10430 6 4 3 5 31 2 63 -3 32
-3 6482 0 14333 3 7851 4 14276 4 14278 -2 4 -21199 8 -21414 4z m21141 -252
c19 -11 19 -181 19 -14095 0 -8255 -4 -14086 -9 -14089 -5 -3 -4747 -6 -10537
-6 l-10529 0 -5 14082 c-3 7746 -3 14091 -1 14101 3 16 512 17 10523 17 7232
0 10525 -3 10539 -10z"/>
<path d="M12270 2804 c-62 -6 -167 -32 -215 -54 -22 -10 -68 -29 -103 -43
-266 -108 -504 -415 -558 -722 -62 -351 66 -709 343 -966 51 -47 207 -149 229
-149 3 0 20 -7 37 -14 133 -61 358 -90 526 -67 315 42 598 237 758 521 74 132
130 401 117 570 -5 73 -35 215 -53 255 -98 209 -145 279 -256 383 -150 141
-276 211 -475 263 -75 20 -256 32 -350 23z m289 -209 c120 -29 163 -45 243
-92 148 -89 281 -242 341 -393 50 -127 61 -187 61 -330 0 -127 -1 -140 -33
-230 -37 -107 -65 -160 -127 -241 -98 -129 -231 -227 -384 -286 -88 -34 -153
-45 -278 -47 -108 -1 -125 2 -221 33 -146 47 -212 85 -317 183 -71 67 -146
170 -191 264 -54 111 -73 204 -73 349 0 119 9 169 53 275 40 100 70 152 133
231 114 143 280 247 454 284 89 19 259 19 339 0z"/>
</g>
</svg>
