<?xml version="1.0" standalone="no"?>
<!DOCTYPE svg PUBLIC "-//W3C//DTD SVG 20010904//EN"
 "http://www.w3.org/TR/2001/REC-SVG-20010904/DTD/svg10.dtd">
<svg version="1.0" xmlns="http://www.w3.org/2000/svg"
 width="668.000000pt" height="917.000000pt" viewBox="0 0 668.000000 917.000000"
 preserveAspectRatio="xMidYMid meet">

<g transform="translate(0.000000,917.000000) scale(0.100000,-0.100000)"
fill="#bfc8e6" stroke="none">
<path d="M388 9086 c-122 -43 -201 -116 -261 -243 l-32 -68 -3 -4135 c-1
-2745 1 -4153 8 -4190 25 -136 115 -252 247 -317 l77 -38 2910 0 2911 0 58 24
c118 47 220 158 257 279 20 63 20 108 20 4196 0 4458 3 4171 -51 4282 -49 100
-175 197 -290 223 -29 7 -1016 11 -2914 11 l-2870 0 -67 -24z m2970 -139 c2
-10 -3 -17 -12 -17 -18 0 -29 16 -21 31 9 14 29 6 33 -14z m2843 -216 l29 -29
0 -4102 0 -4102 -29 -29 -29 -29 -2832 0 c-1923 0 -2837 3 -2851 10 -10 6 -26
24 -34 40 -13 26 -15 490 -15 4110 0 3608 2 4084 15 4110 8 16 23 34 32 39 12
7 945 10 2851 11 l2834 0 29 -29z"/>
</g>
</svg>
