<?xml version="1.0" standalone="no"?>
<!DOCTYPE svg PUBLIC "-//W3C//DTD SVG 20010904//EN"
 "http://www.w3.org/TR/2001/REC-SVG-20010904/DTD/svg10.dtd">
<svg version="1.0" xmlns="http://www.w3.org/2000/svg"
 width="1920.000000pt" height="3652.000000pt" viewBox="0 0 1920.000000 3652.000000"
 preserveAspectRatio="xMidYMid meet">
<metadata>
Created by potrace 1.16, written by Peter Selinger 2001-2019
</metadata>
<g transform="translate(0.000000,3652.000000) scale(0.100000,-0.100000)"
fill="#000000" stroke="none">
<path d="M3874 36199 c-88 -4 -205 -15 -260 -23 -109 -16 -354 -73 -449 -105
-143 -47 -243 -84 -289 -107 -28 -13 -56 -24 -63 -24 -7 0 -29 -10 -50 -22
-21 -11 -67 -37 -103 -56 -158 -85 -371 -225 -509 -335 -195 -155 -537 -534
-617 -682 -6 -11 -35 -58 -64 -105 -47 -76 -170 -310 -170 -324 0 -3 -16 -41
-36 -83 -35 -77 -103 -271 -129 -368 -20 -75 -52 -249 -65 -345 -6 -47 -14
-98 -17 -115 -3 -16 -9 -956 -12 -2088 -6 -2023 -6 -2059 -25 -2073 -11 -8
-37 -14 -57 -14 -44 0 -53 -10 -51 -58 2 -43 14 -58 32 -37 14 17 56 20 65 5
3 -5 6 -281 6 -612 l0 -603 -55 -3 c-40 -2 -56 -7 -56 -17 0 -19 32 -35 75
-39 20 -1 40 -7 45 -12 13 -13 24 -907 13 -1058 l-8 -109 -35 -18 c-48 -26
-60 -45 -60 -98 l1 -46 15 28 c12 22 21 28 42 25 l27 -3 7 -395 c4 -217 6
-801 6 -1297 l-1 -901 -32 -6 c-18 -4 -40 -4 -49 0 -10 4 -16 1 -16 -9 0 -16
41 -47 63 -47 8 0 19 -6 25 -12 13 -16 22 -431 13 -592 l-6 -119 -30 -10 c-44
-15 -63 -44 -63 -100 0 -47 12 -54 20 -12 4 22 35 30 58 15 13 -8 15 -166 15
-1297 0 -1138 -2 -1288 -15 -1289 -8 -1 -30 -2 -48 -3 -29 -1 -33 -4 -30 -23
2 -19 11 -24 45 -29 24 -3 46 -9 50 -13 5 -4 10 -3887 13 -8629 4 -4742 9
-8633 12 -8647 4 -14 12 -68 18 -120 12 -100 12 -102 61 -305 31 -132 95 -333
131 -415 159 -356 308 -590 547 -862 264 -300 556 -523 916 -697 121 -59 152
-72 230 -101 33 -12 69 -26 80 -30 11 -5 36 -13 55 -19 19 -6 62 -19 95 -29
57 -18 86 -27 180 -51 67 -17 264 -49 375 -61 140 -16 11814 -14 11970 1 303
29 630 113 920 237 193 82 366 180 548 309 181 128 445 379 594 563 108 134
314 463 376 601 76 170 126 303 160 424 63 220 83 310 101 455 6 47 14 101 18
120 3 19 9 3909 12 8644 l6 8610 33 8 c46 12 44 44 -4 64 -30 13 -35 19 -29
37 4 12 9 589 12 1282 l4 1260 37 10 c54 15 50 44 -10 74 l-48 23 0 4993 c0
3316 -3 5035 -10 5121 -26 321 -110 670 -231 958 -93 219 -158 338 -297 541
-240 351 -610 692 -978 900 -227 129 -454 225 -659 280 -27 7 -84 23 -125 34
-101 27 -221 49 -365 68 -109 15 -671 16 -5930 18 -3196 1 -5882 -1 -5971 -6z
m10663 -50 c7 -7 46 -8 114 -5 57 4 268 9 469 12 377 5 580 -5 810 -41 206
-32 482 -115 689 -206 205 -90 465 -248 641 -389 121 -97 368 -341 456 -450
362 -452 574 -947 650 -1523 18 -134 31 -1093 16 -1116 -7 -10 -14 -10 -30 -2
-12 6 -23 7 -26 2 -6 -10 22 -25 41 -22 8 1 13 -26 15 -85 3 -85 -3 -117 -16
-95 -4 6 -13 11 -19 11 -7 0 0 -10 16 -23 l27 -22 0 -13827 c0 -7604 -3
-13834 -6 -13843 -5 -11 -15 -15 -31 -12 -13 2 -26 1 -28 -3 -5 -8 20 -22 40
-24 18 -2 23 -162 20 -686 -3 -576 -6 -610 -73 -905 -21 -90 -127 -421 -141
-440 -4 -5 -18 -37 -31 -70 -13 -33 -50 -110 -81 -170 -357 -690 -957 -1210
-1677 -1454 -125 -42 -335 -96 -452 -115 -294 -48 18 -46 -6186 -45 -6014 0
-5977 0 -6164 38 -314 63 -493 118 -740 228 -324 143 -580 315 -829 557 -185
180 -299 319 -470 574 -48 71 -187 336 -221 422 -12 30 -28 69 -35 85 -25 58
-84 243 -110 346 -71 279 -85 441 -85 984 0 243 3 457 6 474 5 23 11 30 22 26
11 -4 13 0 8 17 -29 94 -30 142 -3 151 6 2 2 2 -10 0 l-23 -3 -1 7612 c0 4187
-2 8146 -5 8798 -7 1814 -5 9824 3 10614 6 666 7 699 25 704 22 5 22 4 2 88
-8 37 -13 73 -10 81 3 7 0 16 -7 19 -13 5 -14 98 -3 739 5 264 24 512 46 580
5 17 16 66 24 110 22 116 64 258 97 331 11 22 19 46 19 52 0 6 14 41 30 77 17
36 30 67 30 69 0 9 103 216 143 286 74 133 197 311 291 425 100 121 361 368
491 465 120 90 297 210 309 210 3 0 29 14 58 32 299 178 802 326 1218 357 177
13 10674 13 10687 0z"/>
<path d="M14545 36071 c-4 -8 -1534 -11 -5313 -11 -3485 0 -5345 -3 -5417 -10
-227 -21 -498 -76 -690 -142 -280 -94 -672 -305 -885 -476 -120 -95 -340 -326
-481 -502 -46 -58 -164 -239 -199 -305 -15 -28 -39 -71 -53 -96 -37 -62 -123
-266 -164 -384 -106 -313 -139 -538 -143 -980 -1 -121 -3 -328 -4 -460 -1
-185 -5 -246 -16 -265 -18 -32 -14 -166 7 -223 13 -36 15 -174 20 -962 6
-1091 13 -2240 13 -2310 1 -27 -1 -1233 -5 -2680 -7 -3558 -8 -5586 -1 -5667
3 -41 1 -68 -4 -68 -7 0 -11 -204 -11 -562 -1 -649 -1 -658 12 -675 6 -6 11
-62 12 -123 1 -86 -2 -113 -13 -120 -11 -7 -14 -59 -14 -292 -1 -156 0 -2936
2 -6178 2 -5288 4 -5902 18 -5965 9 -38 16 -86 15 -105 0 -78 -14 -199 -22
-195 -13 9 -16 -131 -17 -975 -2 -637 -5 -817 -15 -825 -15 -13 -14 -183 2
-213 6 -11 11 -33 11 -49 0 -16 6 -37 14 -48 10 -16 11 -37 4 -95 -12 -102 8
-837 28 -1015 30 -272 106 -535 224 -775 254 -519 654 -945 1170 -1246 93 -55
152 -83 280 -137 258 -107 430 -156 715 -203 153 -26 180 -27 633 -31 471 -5
473 -5 466 -25 -5 -18 -3 -20 17 -13 13 5 51 9 84 10 33 1 67 4 75 8 8 3 22 6
30 6 8 1 42 5 75 9 33 5 382 10 775 13 949 5 6164 5 8220 -1 1832 -5 1730 -8
2081 66 82 17 298 82 409 124 182 67 553 278 692 393 155 127 281 244 356 330
104 119 232 278 232 288 0 4 11 20 24 36 74 87 219 357 284 526 22 56 43 111
47 122 10 24 38 120 70 240 61 232 87 537 85 1005 -2 461 -2 470 16 470 10 0
14 6 10 18 -3 9 -6 51 -7 92 -1 41 -6 86 -11 100 -6 15 -9 5419 -10 13852 0
11032 2 13831 12 13843 15 18 14 193 -1 211 -5 6 -11 223 -13 510 -2 281 -9
538 -15 589 -52 414 -127 675 -281 979 -204 403 -530 784 -880 1029 -360 252
-733 403 -1185 481 -182 32 -251 36 -740 47 -225 5 -458 11 -516 15 -72 4
-109 2 -114 -5z m1460 -641 c105 -11 202 -31 390 -84 219 -61 543 -260 710
-437 182 -192 306 -380 405 -614 63 -152 101 -317 115 -513 10 -150 6 -30831
-5 -30912 -21 -161 -29 -200 -60 -301 -94 -306 -227 -527 -455 -754 -138 -137
-174 -167 -325 -263 -194 -125 -406 -208 -610 -242 -41 -7 -91 -16 -110 -21
-47 -12 -12608 -12 -12663 0 -23 5 -73 14 -112 21 -89 15 -173 40 -305 92
-258 102 -484 257 -672 461 -49 53 -171 212 -203 265 -5 9 -22 35 -36 57 -93
147 -178 403 -220 665 -20 126 -21 30879 -1 31015 16 106 63 299 93 381 12 33
52 122 90 199 128 262 332 496 594 681 86 60 104 71 230 132 128 63 314 126
435 147 52 8 106 19 120 22 57 14 1912 18 7045 16 4057 -1 5460 -5 5550 -13z
m1864 -33211 c-131 -260 -227 -395 -421 -592 -81 -83 -150 -148 -154 -145 -3
3 46 59 109 125 63 65 134 143 159 173 84 106 168 217 168 223 0 3 27 50 60
104 33 53 60 100 60 104 0 13 42 80 47 75 2 -2 -10 -33 -28 -67z"/>
<path d="M7910 34940 c-162 -12 -215 -28 -325 -102 -143 -96 -233 -215 -285
-378 -21 -64 -25 -94 -24 -205 0 -108 4 -142 23 -200 13 -38 27 -74 32 -80 5
-5 9 -15 9 -23 0 -19 54 -97 109 -157 56 -62 160 -140 226 -170 115 -53 9 -50
2075 -50 l1925 0 87 35 c49 19 117 56 152 81 128 94 244 261 277 399 19 76 16
279 -5 355 -59 219 -250 411 -479 483 -47 14 -222 16 -1872 17 -1001 1 -1867
-1 -1925 -5z"/>
</g>
</svg>
