<?xml version="1.0" standalone="no"?>
<!DOCTYPE svg PUBLIC "-//W3C//DTD SVG 20010904//EN"
 "http://www.w3.org/TR/2001/REC-SVG-20010904/DTD/svg10.dtd">
<svg version="1.0" xmlns="http://www.w3.org/2000/svg"
 width="1291.000000pt" height="750.000000pt" viewBox="0 0 1291.000000 750.000000"
 preserveAspectRatio="xMidYMid meet">

<g transform="translate(0.000000,750.000000) scale(0.100000,-0.100000)"
fill="#bfc8e6" stroke="none">
<path d="M1490 7411 c-94 -19 -184 -92 -232 -189 l-23 -47 -3 -3097 -2 -3097
21 -57 c25 -67 94 -146 154 -176 98 -51 -200 -48 5058 -48 3502 0 4932 3 4965
11 143 33 246 140 273 283 6 32 8 1194 7 3101 -3 2981 -3 3051 -22 3103 -23
63 -109 157 -176 193 l-45 24 -4970 1 c-2733 1 -4986 -1 -5005 -5z m5020 -209
c46 -37 16 -122 -43 -122 -30 0 -67 39 -67 69 1 61 64 90 110 53z m4905 -3147
l0 -2810 -4950 0 -4950 0 -3 2800 c-1 1540 0 2806 3 2813 3 10 999 12 4952 10
l4948 -3 0 -2810z"/>
<path d="M6440 7175 c-26 -31 13 -82 44 -56 19 16 21 42 4 59 -16 16 -33 15
-48 -3z"/>
<path d="M83 607 c-19 -16 -23 -28 -23 -77 0 -89 20 -115 165 -210 240 -157
451 -236 710 -265 113 -13 846 -15 5515 -15 3564 0 5424 4 5500 10 214 19 406
75 588 170 142 75 298 183 317 220 9 17 15 56 15 94 0 61 -2 66 -27 79 -24 12
-447 14 -2600 13 -2314 -1 -2574 -3 -2588 -17 -8 -8 -20 -42 -25 -75 -12 -74
-50 -130 -110 -161 l-45 -23 -1015 3 c-972 2 -1017 3 -1053 21 -52 26 -96 93
-104 157 -3 28 -14 60 -24 72 l-17 22 -2578 0 c-2484 0 -2578 0 -2601 -18z"/>
<path d="M5375 553 c-22 -22 -14 -77 17 -111 50 -54 10 -52 1075 -52 949 0
990 1 1030 19 66 30 100 126 54 151 -13 7 -371 10 -1090 10 -987 0 -1071 -1
-1086 -17z"/>
</g>
</svg>
