<?xml version="1.0" standalone="no"?>
<!DOCTYPE svg PUBLIC "-//W3C//DTD SVG 20010904//EN"
 "http://www.w3.org/TR/2001/REC-SVG-20010904/DTD/svg10.dtd">
<svg version="1.0" xmlns="http://www.w3.org/2000/svg"
 width="2464.000000pt" height="1800.000000pt" viewBox="0 0 2464.000000 1800.000000"
 preserveAspectRatio="xMidYMid meet">
<metadata>
Created by potrace 1.16, written by Peter Selinger 2001-2019
</metadata>
<g transform="translate(0.000000,1800.000000) scale(0.100000,-0.100000)"
fill="#000000" stroke="none">
<path d="M2620 17944 c-146 -22 -260 -77 -354 -173 -36 -36 -78 -84 -94 -106
-42 -59 -86 -161 -103 -233 -9 -41 -12 -9274 -3 -11992 3 -1030 6 -1231 18
-1265 l14 -40 -31 -16 c-63 -33 -123 -109 -201 -251 -20 -38 -52 -98 -72 -135
-20 -38 -45 -80 -55 -95 -11 -14 -19 -29 -19 -33 0 -4 -8 -19 -18 -33 -11 -15
-37 -61 -59 -102 -22 -41 -54 -99 -71 -128 -18 -29 -32 -54 -32 -56 0 -2 -22
-41 -50 -87 -27 -46 -50 -88 -50 -93 0 -5 -6 -17 -14 -25 -7 -9 -29 -45 -48
-81 -62 -114 -127 -229 -173 -305 -25 -40 -45 -76 -45 -78 0 -2 -27 -52 -60
-110 -33 -59 -60 -108 -60 -111 0 -2 -17 -33 -39 -67 -21 -35 -56 -98 -78
-139 -52 -97 -133 -245 -161 -292 -27 -47 -56 -97 -83 -145 -12 -21 -25 -42
-29 -48 -4 -5 -25 -44 -47 -85 -22 -41 -50 -93 -63 -115 -33 -56 -180 -318
-180 -321 0 -1 -36 -66 -80 -144 -44 -78 -80 -147 -80 -154 0 -7 -4 -16 -10
-22 -5 -5 -17 -38 -26 -74 -18 -73 -26 -448 -11 -554 10 -70 35 -98 124 -141
89 -43 174 -54 488 -64 745 -24 23329 -37 23425 -14 107 26 172 57 229 109 81
73 97 159 82 440 -7 134 -13 181 -30 220 -11 27 -40 103 -65 169 -41 113 -159
387 -239 555 -19 41 -58 129 -87 195 -29 66 -56 125 -60 130 -5 6 -19 37 -33
70 -14 33 -71 164 -127 290 -56 127 -122 277 -147 335 -25 58 -55 128 -68 155
-13 28 -46 101 -75 163 -28 62 -73 160 -100 218 -28 57 -50 107 -50 110 0 3
-18 44 -40 90 -22 47 -40 87 -40 90 0 3 -13 33 -29 67 -81 172 -118 253 -171
372 -32 72 -72 158 -89 193 -17 34 -31 67 -31 72 0 12 -32 29 -84 44 -39 12
-41 14 -40 52 0 21 6 71 13 109 9 54 11 1563 8 6585 -3 6029 -4 6520 -19 6588
-28 118 -82 213 -185 322 -78 84 -159 134 -263 163 l-75 22 -9865 1 c-5426 1
-9876 0 -9890 -2z m10695 -102 c4323 1 8119 3 8435 3 612 0 683 -4 759 -48
125 -72 238 -216 282 -362 20 -68 25 -1231 25 -6205 0 -5323 -6 -6966 -24
-7021 -23 -67 38 -64 -1066 -67 -610 -1 -1003 1 -1009 7 -5 5 -17 60 -28 122
-10 61 -23 117 -29 123 -17 17 -16390 10 -16407 -7 -7 -7 -22 -57 -33 -112
-12 -55 -25 -103 -29 -108 -12 -12 -1978 -4 -1991 9 -35 35 -35 18 -34 6714 2
6465 2 6536 21 6590 27 76 104 182 175 241 111 92 165 110 373 120 88 4 736 5
1440 3 704 -3 4817 -3 9140 -2z m7193 -13538 c73 -6 83 -9 86 -28 21 -108 26
-139 31 -193 l7 -63 -69 -1 c-528 -5 -15740 11 -16000 17 -202 5 -255 9 -264
21 -10 11 -10 36 0 110 7 53 17 107 22 120 l8 23 893 3 c1876 5 15207 -2
15286 -9z m-16328 -299 l5 -60 140 -6 c77 -4 1339 -7 2805 -8 1466 -1 2827 -4
3025 -6 198 -3 2653 -6 5456 -8 4307 -2 5098 0 5112 12 10 7 17 28 17 45 0 64
-83 59 1077 60 922 1 1062 -1 1087 -14 30 -15 82 -102 110 -183 19 -55 79
-191 211 -482 29 -64 55 -121 95 -214 33 -77 80 -179 135 -296 18 -38 43 -92
55 -120 12 -27 33 -74 46 -103 13 -29 24 -55 24 -57 0 -2 11 -28 24 -57 13
-29 34 -75 46 -103 12 -27 34 -75 47 -105 14 -30 43 -95 64 -145 22 -49 49
-110 61 -135 11 -25 24 -54 29 -65 4 -11 26 -60 49 -108 22 -49 40 -90 40 -92
0 -1 24 -54 54 -116 29 -63 68 -148 86 -189 18 -41 52 -117 76 -168 24 -52 44
-96 44 -98 0 -2 14 -32 30 -66 17 -34 30 -65 30 -70 0 -4 13 -37 30 -73 46
-100 90 -243 90 -291 0 -27 -6 -49 -17 -59 -22 -23 -88 -50 -138 -58 -22 -4
-2022 -8 -4445 -9 -2423 -1 -4717 -5 -5099 -8 l-694 -5 -26 -98 c-17 -64 -36
-109 -54 -133 l-29 -35 -1523 3 c-1518 3 -1524 3 -1552 24 -39 28 -71 97 -80
174 l-8 65 -1620 7 c-891 4 -3206 7 -5145 5 -3304 -2 -3528 -1 -3580 15 -30
10 -70 31 -89 48 -33 31 -34 32 -29 98 6 73 23 114 144 328 37 65 80 144 97
174 16 30 38 67 49 82 10 14 18 28 18 31 0 4 66 124 254 462 16 28 36 61 45
75 10 14 37 61 61 105 24 44 57 105 73 135 17 30 37 66 47 80 9 14 31 54 50
90 18 36 42 81 53 100 11 19 40 71 65 115 24 44 48 85 52 90 4 6 23 39 42 75
19 36 62 114 96 174 34 60 62 111 62 112 0 1 18 32 40 68 22 36 40 68 40 72 0
3 9 18 20 34 11 15 36 58 56 96 20 38 71 130 114 204 79 139 128 227 188 340
43 82 99 175 131 218 46 63 45 63 601 73 634 12 903 15 1250 14 l275 0 5 -60z
m20217 -3597 c-7 -116 -17 -161 -50 -209 -39 -57 -88 -77 -223 -89 -84 -8
-1486 -9 -4789 -4 -2568 3 -7786 7 -11595 9 -6995 2 -7237 3 -7370 37 -25 6
-53 18 -64 27 -18 16 -48 66 -52 86 -8 52 -13 178 -8 204 6 27 10 32 28 26
119 -36 -73 -35 5229 -38 4100 -2 5108 -5 5120 -15 9 -7 19 -32 22 -55 15 -91
50 -143 120 -180 l40 -22 1538 -3 1537 -2 59 39 c58 39 88 84 104 152 4 15 15
37 26 50 l19 24 1269 5 c697 3 2972 6 5054 8 2229 1 3808 6 3842 12 31 5 68
16 84 24 15 8 37 15 47 16 18 0 19 -6 13 -102z"/>
<path d="M3370 17060 l-535 -5 -1 -6075 c-1 -4526 1 -6077 10 -6082 6 -4 4354
-8 9662 -8 8224 0 9653 2 9657 14 9 24 12 1743 11 6961 -1 2920 -5 5080 -10
5120 l-9 70 -310 6 c-387 7 -17742 6 -18475 -1z m18682 -108 c11 -11 13 -1096
12 -5978 0 -3876 -4 -5968 -10 -5974 -11 -11 -19068 -16 -19096 -5 -17 7 -18
282 -20 5549 -3 6467 -4 6353 5 6388 7 27 9 27 100 31 50 2 4345 3 9544 3
7743 -1 9454 -3 9465 -14z"/>
<path d="M4100 3856 c-20 -9 -78 -120 -138 -266 -17 -41 -58 -138 -91 -216
-33 -77 -66 -158 -74 -180 -8 -21 -29 -79 -47 -129 -18 -49 -40 -108 -50 -130
-32 -72 -109 -285 -153 -421 -54 -166 -72 -243 -59 -256 30 -30 151 -39 681
-48 295 -5 820 -15 1166 -21 347 -7 642 -9 656 -6 23 6 28 16 48 103 24 106
38 139 71 169 31 28 39 6 24 -73 -21 -115 -23 -190 -5 -198 9 -3 356 -8 771
-10 415 -2 970 -8 1233 -12 428 -8 569 -5 599 14 5 3 7 13 6 22 -5 29 54 22
68 -7 7 -13 18 -27 25 -32 14 -8 3839 -3 5184 6 681 5 1459 9 2790 13 303 0
569 4 591 8 l40 6 22 90 c41 174 82 185 63 17 -8 -73 -8 -106 -1 -113 14 -14
476 -18 854 -8 l269 7 1 97 c1 105 14 138 37 97 17 -31 41 -116 42 -150 0 -45
48 -49 571 -49 472 0 473 0 518 23 41 21 48 21 89 9 24 -8 94 -18 154 -22 142
-11 1104 8 1199 23 l71 12 -3 45 c-4 46 -25 133 -68 280 -14 47 -28 94 -31
105 -28 112 -170 562 -223 705 -17 47 -56 161 -88 253 -44 131 -63 173 -82
187 -23 16 -64 18 -450 24 -1093 15 -1360 16 -8750 33 -4431 9 -7507 9 -7530
-1z m192 -126 c-1 -19 -17 -89 -34 -155 -17 -66 -32 -133 -32 -150 -1 -29 1
-30 54 -37 30 -4 346 -7 702 -6 523 2 649 -1 662 -11 12 -10 16 -31 16 -77 0
-101 -5 -104 -197 -104 -87 0 -424 5 -750 12 -475 9 -594 9 -607 -1 -14 -12
-106 -277 -106 -306 0 -8 8 -18 18 -23 29 -15 215 -26 432 -25 113 0 468 2
790 3 322 1 615 5 653 7 l67 5 0 33 c0 38 33 85 61 85 20 0 22 -7 23 -80 l1
-45 50 -7 c28 -3 91 -7 140 -8 117 -3 139 -9 143 -42 4 -35 -38 -108 -78 -136
-32 -21 -40 -22 -169 -17 -615 23 -1039 34 -1686 45 -444 8 -523 7 -542 -5
-29 -20 -83 -118 -133 -245 -23 -58 -49 -111 -58 -117 -19 -16 -71 -17 -107
-3 -20 8 -25 15 -20 28 4 9 20 51 35 92 16 41 42 111 58 155 17 44 53 143 82
220 28 77 65 176 81 220 17 44 37 100 46 125 8 24 26 67 38 95 55 122 65 145
85 196 12 30 28 68 35 84 8 17 24 57 36 90 45 122 72 146 159 142 l55 -2 -3
-35z m11968 15 c547 -2 1227 -7 1510 -10 283 -2 956 -7 1495 -10 1227 -8 1466
-11 1486 -19 19 -8 32 -35 66 -136 13 -41 29 -84 33 -95 5 -11 16 -42 24 -70
8 -27 44 -135 79 -240 36 -104 79 -237 97 -295 17 -58 35 -116 40 -130 7 -24
23 -77 71 -242 11 -40 25 -83 30 -96 5 -13 9 -36 9 -51 0 -24 -5 -30 -31 -35
-52 -10 -1111 -28 -1136 -19 -15 5 -19 208 -5 217 5 3 159 6 343 7 377 3 545
11 577 28 14 8 22 21 22 39 0 32 -40 155 -74 228 -41 87 -24 84 -422 75 -192
-3 -355 -5 -361 -3 -9 3 -13 30 -13 88 0 79 1 84 23 89 12 2 144 6 292 7 239
3 274 6 304 22 l34 18 -7 60 c-7 72 -52 168 -86 186 -20 11 -166 12 -782 7
-628 -6 -758 -4 -759 7 0 7 0 39 1 71 3 129 -54 188 -158 161 -34 -10 -52 -55
-59 -150 -3 -47 -9 -87 -13 -89 -14 -9 -902 -7 -911 2 -5 5 -4 32 3 64 27 128
-19 189 -143 189 -62 0 -70 -2 -85 -24 -8 -14 -23 -67 -32 -118 -9 -51 -21
-99 -26 -107 -13 -21 -850 -12 -853 9 -1 8 -5 55 -8 104 -6 76 -11 92 -32 114
-22 22 -30 24 -103 20 -115 -5 -123 -15 -121 -147 l1 -101 -420 0 c-328 0
-421 3 -424 13 -2 6 -8 47 -14 91 -16 129 -55 160 -164 135 -74 -17 -87 -36
-95 -133 -2 -33 -6 -71 -9 -84 l-5 -23 -423 2 c-233 0 -427 4 -432 7 -6 4 -15
49 -22 101 -7 60 -17 100 -27 110 -11 11 -40 17 -93 19 -99 5 -116 -7 -143
-103 -10 -38 -19 -79 -19 -91 0 -12 -6 -24 -12 -26 -7 -3 -195 -3 -418 -1
-303 3 -406 7 -412 16 -4 7 -8 30 -9 52 0 22 -6 60 -12 85 -11 40 -17 46 -57
62 -46 17 -115 23 -145 11 -28 -10 -65 -101 -65 -159 0 -33 -5 -53 -12 -56 -7
-2 -200 -2 -429 0 l-416 4 -12 88 c-17 121 -32 135 -136 128 -53 -4 -81 -10
-95 -23 -22 -20 -60 -114 -60 -149 0 -13 -6 -28 -12 -33 -8 -5 -154 -7 -363
-3 -258 4 -361 3 -393 -6 -40 -11 -44 -11 -56 9 -8 12 -17 47 -21 77 -14 106
-40 129 -142 130 -97 0 -118 -17 -139 -120 -8 -41 -17 -76 -19 -78 -5 -6 -784
-2 -799 4 -9 3 -22 36 -31 76 -20 89 -38 124 -67 132 -44 11 -143 6 -165 -9
-22 -16 -53 -92 -53 -132 0 -14 -5 -33 -10 -44 -10 -18 -24 -19 -343 -18 -183
1 -370 4 -416 7 l-84 7 -14 60 c-7 33 -15 70 -18 82 -9 39 -33 53 -90 53 -64
0 -81 -15 -140 -122 l-41 -73 -414 0 -413 0 -18 84 c-10 46 -23 89 -29 96 -16
19 -75 27 -118 16 -45 -13 -89 -56 -130 -131 l-30 -55 -401 0 c-253 0 -404 4
-410 10 -5 6 -17 43 -25 84 -9 41 -20 79 -26 85 -24 24 -198 22 -223 -3 -5 -5
-19 -40 -31 -78 l-23 -68 -375 -3 c-235 -1 -386 2 -403 8 -30 12 -55 63 -55
115 0 57 -14 75 -61 75 -23 0 -65 -7 -95 -16 -46 -13 -61 -24 -89 -62 -19 -26
-40 -59 -47 -73 -23 -51 -22 -51 -430 -43 -294 5 -381 10 -385 20 -2 7 5 33
16 59 11 26 23 70 27 98 3 29 13 63 21 76 l16 24 5416 -7 c2979 -4 5864 -9
6411 -11z m-6345 -201 c20 -13 25 -24 24 -58 -1 -22 -4 -52 -8 -66 -7 -24 4
-58 24 -72 6 -4 62 -8 125 -8 63 0 139 -3 168 -6 l52 -7 0 -48 c0 -63 -16 -95
-54 -110 -21 -8 -149 -13 -412 -17 -372 -4 -382 -4 -402 16 -17 17 -52 111
-52 140 0 18 30 22 240 28 l210 7 1 26 c5 125 10 155 25 172 21 23 28 23 59 3z
m2253 -3 c9 -5 15 -41 19 -105 4 -66 10 -100 21 -108 9 -8 75 -15 176 -20 192
-9 203 -12 218 -43 16 -35 2 -72 -33 -90 -42 -22 -238 -34 -567 -35 l-272 0
-30 46 c-30 47 -47 101 -36 112 4 3 96 8 205 11 222 7 231 10 231 71 0 52 21
154 34 162 14 10 18 10 34 -1z m-3390 -30 c2 -13 1 -39 -3 -57 -5 -28 -10 -34
-30 -34 -14 0 -25 -4 -25 -9 0 -15 28 -33 40 -26 7 4 14 -2 17 -13 7 -27 39
-32 202 -32 93 0 141 -4 149 -12 14 -14 16 -106 3 -126 -16 -27 -93 -32 -478
-31 l-392 0 -27 32 c-27 32 -63 102 -64 124 0 8 59 12 215 12 118 1 238 6 266
11 29 6 53 10 54 10 2 0 1 28 0 63 -3 75 15 120 48 115 14 -2 23 -11 25 -27z
m4552 3 c0 -15 5 -55 12 -90 8 -47 8 -70 0 -88 l-11 -24 72 -6 c40 -3 128 -7
197 -10 69 -2 137 -9 152 -15 28 -11 45 -48 34 -76 -13 -35 -56 -38 -478 -43
l-417 -4 -24 26 c-24 26 -50 100 -39 111 3 3 80 5 171 6 91 0 186 4 210 7 l45
7 12 70 c7 39 13 86 13 106 1 41 7 49 33 49 13 0 18 -7 18 -26z m4551 -61 c-2
-85 11 -157 32 -170 6 -4 113 -10 237 -13 l225 -5 3 -29 c5 -37 -13 -71 -45
-85 -16 -7 -150 -11 -418 -11 l-393 0 -26 31 c-32 37 -43 76 -27 92 8 8 66 13
167 16 105 2 157 7 159 15 2 6 8 52 15 101 15 116 27 147 53 143 19 -3 20 -10
18 -85z m-6819 -10 c4 -46 9 -87 12 -92 11 -17 97 -31 203 -32 59 0 124 -5
143 -12 31 -11 35 -17 38 -50 3 -32 -2 -43 -30 -71 -33 -33 -36 -34 -148 -41
-188 -12 -684 -2 -703 13 -21 18 -57 97 -57 126 0 32 14 34 200 36 106 1 171
6 207 16 l53 15 0 71 c0 78 17 111 54 106 19 -3 22 -13 28 -85z m-4568 -67
c28 -8 75 -20 105 -26 73 -14 81 -23 81 -84 0 -96 21 -90 -377 -96 -294 -5
-351 -4 -365 9 -10 8 -18 19 -18 26 0 7 -6 25 -14 41 -24 47 -28 78 -14 96 11
15 48 18 263 28 137 6 251 13 254 15 8 8 32 6 85 -9z m1171 -11 c33 -8 85 -14
115 -15 30 0 92 -3 138 -7 l82 -6 0 -39 c0 -22 -8 -56 -17 -75 -30 -64 -35
-64 -542 -70 -531 -7 -491 -15 -514 102 -9 44 -11 74 -5 82 7 9 92 13 308 15
223 2 302 6 312 16 16 16 49 15 123 -3z m7060 -80 c153 -8 170 -15 158 -64
-15 -63 3 -61 -427 -61 -368 0 -393 1 -423 19 -28 17 -46 55 -48 96 0 6 20 13
45 16 57 7 511 3 695 -6z m1140 -3 c105 -4 196 -11 203 -15 18 -12 15 -62 -7
-88 l-18 -23 -422 -4 c-471 -5 -453 -8 -467 64 -11 61 -3 64 195 64 102 0 182
5 191 10 9 6 41 8 75 5 33 -3 146 -9 250 -13z m1125 -3 c123 -5 228 -13 233
-18 13 -13 -2 -56 -32 -92 l-28 -33 -356 -4 c-195 -3 -376 -1 -401 2 -43 7
-49 11 -76 59 -43 75 -40 77 185 87 103 5 190 12 194 15 3 4 17 4 31 0 14 -3
126 -11 250 -16z m-7701 -3 c6 -7 18 -42 25 -77 18 -81 24 -99 48 -126 22 -24
34 -88 24 -128 -13 -51 -44 -55 -388 -55 -172 0 -363 3 -425 7 l-112 6 -11 30
c-14 42 -13 90 4 113 14 18 30 19 375 19 307 0 362 2 374 15 8 8 19 55 25 103
6 48 14 92 17 97 9 14 31 12 44 -4z m10240 -10 c19 -12 13 -81 -9 -101 -19
-17 -50 -19 -436 -23 -463 -5 -443 -8 -463 65 -13 44 -6 61 27 66 44 7 869 0
881 -7z m1099 2 c15 -15 16 -75 1 -84 -6 -4 -179 -7 -385 -7 -392 0 -412 2
-461 46 -33 30 -29 45 15 50 20 2 213 4 428 5 292 2 393 -1 402 -10z m-9040
-43 c7 -14 12 -38 12 -53 1 -48 35 -105 76 -127 82 -43 85 -112 6 -148 -46
-21 -57 -21 -462 -19 -316 1 -417 5 -426 14 -15 16 -41 135 -31 144 3 4 156 9
339 11 183 2 343 6 356 9 29 6 78 83 87 137 11 66 24 75 43 32z m3473 -69 c24
-64 51 -92 110 -111 26 -9 52 -21 57 -28 12 -15 -3 -134 -19 -153 -19 -23 -84
-25 -492 -17 -335 7 -399 11 -408 23 -5 8 -8 53 -7 100 l3 85 331 5 c260 4
334 8 347 19 11 9 17 29 17 56 0 89 31 100 61 21z m-1136 7 c5 -18 3 -22 -9
-17 -8 3 -19 -3 -25 -15 -17 -32 -13 -36 32 -37 59 -1 149 -37 166 -66 20 -34
7 -109 -25 -141 -14 -14 -42 -27 -67 -31 -59 -10 -815 4 -853 15 -28 9 -32 15
-47 82 -10 39 -17 80 -17 90 0 16 24 17 353 18 380 1 432 6 432 46 0 12 3 25
8 29 4 4 7 15 7 24 0 20 22 43 31 33 4 -5 10 -18 14 -30z m2302 -41 c5 -45 9
-53 38 -66 18 -9 41 -16 52 -16 10 0 29 -7 42 -16 21 -15 23 -22 17 -67 -8
-75 -28 -90 -129 -99 -112 -9 -759 -10 -773 0 -29 20 -56 178 -32 193 7 5 158
9 335 9 177 0 332 4 346 9 21 8 37 39 63 120 9 28 34 -13 41 -67z m2292 19
c12 -16 21 -38 21 -49 0 -29 12 -34 99 -41 l76 -6 3 -45 c2 -25 -4 -62 -12
-82 -15 -34 -19 -37 -68 -42 -88 -9 -656 -14 -758 -7 l-95 6 -14 73 c-10 51
-11 76 -3 84 6 6 133 13 343 17 l334 6 5 35 c7 40 27 80 40 80 5 0 18 -13 29
-29z m-1108 -42 c26 -37 74 -59 128 -59 22 0 43 -5 46 -10 11 -17 -38 -141
-60 -153 -28 -17 -852 -17 -879 -1 -13 8 -24 33 -33 75 -12 58 -11 65 4 77 12
9 77 12 232 13 355 1 404 7 427 50 18 36 70 62 96 48 9 -5 27 -23 39 -40z
m2374 -4 c82 -39 92 -56 80 -139 -13 -87 18 -81 -432 -84 -219 -1 -416 1 -438
6 -40 8 -40 8 -51 72 -7 35 -10 69 -7 75 4 12 278 25 528 25 l121 0 39 40 c23
24 48 40 62 40 13 0 57 -16 98 -35z m-14250 4 c351 -1 355 -1 355 -67 0 -50
-17 -71 -65 -82 -45 -11 -1391 -13 -1587 -3 -149 7 -157 14 -114 88 49 83 6
78 586 71 283 -4 655 -7 825 -7z m1435 -34 c41 -4 81 -12 88 -17 6 -6 12 -28
12 -49 0 -31 -5 -42 -27 -56 -25 -17 -59 -18 -408 -16 -209 1 -404 4 -432 8
-51 6 -53 8 -63 46 -6 22 -13 46 -16 53 -3 8 1 20 9 27 11 11 82 14 388 13
206 -1 408 -4 449 -9z m1248 -27 c17 -45 9 -83 -21 -100 -29 -16 -405 -23
-684 -13 -184 7 -207 9 -225 27 -13 13 -18 30 -16 56 l3 37 60 6 c33 4 182 8
330 8 149 1 288 6 310 11 22 4 83 7 135 7 l94 -2 14 -37z m4604 31 c28 -7 40
-17 44 -35 9 -37 0 -142 -15 -157 -14 -14 -631 -23 -776 -10 -82 7 -91 10
-101 33 -16 35 -25 113 -15 129 7 10 50 14 177 17 362 8 510 14 539 23 41 13
103 13 147 0z m-2306 -20 c40 -25 54 -47 54 -88 0 -35 -3 -37 -72 -57 -41 -12
-141 -16 -453 -21 -465 -7 -428 -15 -429 100 l-1 72 358 1 c197 1 361 5 364 8
4 3 38 6 76 6 53 0 78 -5 103 -21z m-3322 -94 c4 -15 0 -37 -9 -55 -9 -17 -13
-34 -11 -39 10 -16 100 -34 186 -37 47 -2 112 -6 145 -8 l60 -3 -1 -45 c0 -58
-30 -135 -57 -150 -23 -12 -661 -14 -798 -2 l-66 6 -13 88 c-7 49 -10 95 -7
103 5 13 40 15 216 16 252 2 279 8 299 66 33 95 44 107 56 60z m12806 -17 c0
-12 -7 -29 -16 -39 -20 -22 -12 -47 26 -77 l29 -23 386 1 386 0 25 -56 c33
-75 29 -105 -13 -116 -18 -5 -547 -5 -1175 0 -892 7 -1147 11 -1163 21 -35 22
-89 101 -78 112 6 6 98 15 204 20 238 12 260 12 328 -1 57 -11 481 -11 795 -1
154 5 190 9 196 21 18 37 33 87 32 110 0 26 14 50 29 50 5 0 9 -10 9 -22z
m-10486 4 c2 -4 1 -35 -3 -69 l-7 -62 45 -11 c25 -7 128 -14 229 -17 l182 -6
-1 -56 c0 -83 -17 -123 -56 -133 -17 -5 -227 -7 -465 -6 l-433 3 -3 101 -3
101 208 5 c115 3 220 10 236 16 23 10 27 17 27 54 0 57 9 88 26 88 7 0 15 -3
18 -8z m4686 -42 c0 -27 5 -60 11 -74 9 -19 9 -29 0 -40 -19 -22 7 -26 239
-38 118 -5 217 -12 219 -14 12 -11 0 -129 -14 -144 -14 -13 -72 -15 -466 -14
-272 1 -455 6 -460 11 -16 16 -24 149 -9 158 6 4 64 7 128 6 63 -1 162 1 218
5 l102 7 0 31 c-2 52 14 156 23 156 5 0 9 -22 9 -50z m2318 10 c2 -18 -1 -37
-7 -43 -16 -16 -13 -47 3 -47 8 0 18 5 21 10 12 19 27 10 23 -14 -3 -17 0 -27
11 -31 24 -9 223 -25 323 -25 102 0 114 -4 133 -41 22 -41 19 -86 -5 -99 -12
-7 -117 -13 -263 -16 -133 -2 -324 -6 -425 -8 -148 -4 -185 -2 -196 10 -16 15
-43 121 -33 130 10 11 82 24 131 24 28 0 92 7 143 17 74 13 89 18 77 28 -14
10 -14 15 5 48 12 21 21 48 21 61 0 49 33 46 38 -4z m-3498 -105 c13 -35 61
-43 273 -47 104 -1 193 -6 199 -9 14 -9 2 -116 -17 -145 -10 -15 -28 -23 -67
-27 -78 -10 -831 -8 -846 1 -8 6 -15 41 -19 94 l-6 85 184 7 c101 4 195 7 209
7 38 1 60 17 60 45 0 30 17 23 30 -11z m-4550 7 c36 -6 118 -12 183 -12 90 0
119 -3 123 -14 6 -16 -41 -156 -59 -173 -9 -9 -126 -12 -454 -14 -244 -1 -446
0 -449 4 -4 4 -10 44 -15 89 -11 108 -17 126 -43 130 -11 2 130 3 314 2 208 0
360 -5 400 -12z m2222 -13 c11 -6 115 -15 231 -20 116 -6 213 -12 216 -15 8
-8 -19 -127 -35 -151 -13 -21 -22 -23 -122 -24 -304 -4 -806 1 -812 8 -10 11
-21 182 -12 187 5 3 89 6 187 7 99 1 203 5 230 9 77 11 95 11 117 -1z m1220
-14 c22 -10 91 -17 212 -22 211 -9 207 -7 187 -105 -7 -35 -18 -69 -25 -76
-16 -16 -121 -17 -598 -7 -221 5 -331 11 -337 19 -4 6 -11 30 -15 54 -3 23 -9
59 -12 80 l-6 39 198 6 c110 4 213 11 229 16 47 14 131 13 167 -4z m5873 -14
c50 -6 163 -11 253 -11 181 0 181 0 165 -67 -15 -68 -27 -70 -444 -77 -201 -4
-392 -3 -424 0 -53 7 -58 9 -72 42 -8 19 -13 48 -11 66 l3 31 173 6 c95 4 178
11 183 16 11 11 33 10 174 -6z m-2353 -22 c9 -5 108 -9 220 -9 145 0 207 -3
216 -12 21 -21 15 -86 -11 -112 -23 -23 -31 -24 -258 -31 -320 -10 -658 -3
-669 14 -11 19 -22 123 -13 132 4 4 86 9 180 11 109 2 177 8 184 15 12 12 122
6 151 -8z m-8892 -53 c0 -35 -5 -58 -15 -66 -24 -20 -18 -43 18 -67 45 -31
164 -43 428 -43 228 0 279 -5 279 -25 0 -21 -37 -131 -60 -174 -12 -24 -32
-46 -46 -51 -48 -19 -899 -8 -918 10 -3 3 0 56 7 118 14 117 26 141 71 142 57
1 85 23 113 88 17 40 40 74 62 93 52 42 61 38 61 -25z m11802 -28 c8 -13 22
-43 33 -68 28 -67 38 -74 113 -80 l67 -5 -2 -50 c0 -27 -5 -79 -10 -114 -8
-62 -9 -65 -41 -73 -18 -5 -217 -8 -443 -6 -351 3 -411 5 -419 18 -13 20 -1
191 14 207 8 9 98 15 307 20 201 6 301 12 310 20 9 7 16 34 17 63 2 52 15 90
31 90 5 0 15 -10 23 -22z m-5894 -88 c-2 -62 1 -93 10 -102 18 -18 374 -22
768 -10 247 8 308 12 335 26 31 15 35 15 68 -1 33 -17 77 -18 544 -17 l507 1
0 -51 c-1 -63 -14 -125 -32 -142 -7 -7 -46 -15 -88 -18 -41 -3 -988 -8 -2105
-11 -1116 -3 -2284 -7 -2595 -10 -311 -2 -647 -1 -746 2 l-181 6 -6 96 c-2 53
-8 103 -11 112 -9 22 33 41 59 26 13 -7 174 -8 514 -3 498 7 884 8 1386 2 168
-2 278 1 290 7 32 16 44 39 45 84 0 48 8 73 22 73 7 0 8 -23 4 -65 l-7 -65 43
-19 c37 -17 79 -21 288 -28 324 -12 792 -15 806 -6 6 5 14 42 18 83 7 77 25
120 52 120 13 0 15 -15 12 -90z m-7598 10 c162 -6 423 -15 580 -20 157 -6 351
-10 432 -10 145 0 172 -6 150 -33 -14 -17 -52 -149 -52 -179 0 -13 -11 -35
-25 -48 l-25 -24 -573 12 c-314 7 -727 15 -917 17 -190 3 -401 8 -469 11
l-123 6 5 28 c11 53 109 241 131 251 23 10 397 5 886 -11z m13855 -56 c57 -12
166 -14 578 -13 279 1 510 0 512 -3 3 -3 -8 -36 -24 -75 -16 -39 -32 -89 -36
-112 -4 -22 -11 -44 -16 -47 -15 -9 -798 -4 -848 5 -46 9 -58 20 -67 61 -21
95 -28 104 -74 120 -72 25 -140 62 -140 78 0 10 6 12 23 7 12 -3 54 -13 92
-21z m-10516 -20 c288 -2 526 -5 528 -8 3 -3 -4 -33 -15 -68 -11 -35 -26 -88
-32 -118 -7 -30 -17 -61 -23 -67 -7 -10 -70 -13 -251 -13 -265 0 -862 17 -914
25 -54 10 -65 39 -55 142 8 86 8 87 38 95 72 17 142 26 170 21 17 -3 266 -7
554 -9z m9071 -5 c19 -5 54 -9 76 -9 61 0 68 -14 48 -100 -24 -106 -24 -106
-205 -115 -235 -11 -755 -3 -770 12 -15 15 -29 162 -18 184 7 14 51 17 336 23
180 4 348 11 373 15 49 8 104 4 160 -10z m-1205 0 c93 -14 100 -23 90 -124
-11 -122 55 -110 -624 -113 l-590 -2 -16 24 c-12 18 -15 44 -13 105 l3 81 390
5 c448 6 626 13 640 26 12 12 28 11 120 -2z"/>
<path d="M9029 2005 c-15 -8 -34 -32 -43 -55 -24 -59 -75 -294 -126 -575 -19
-107 -35 -190 -71 -376 -6 -31 -12 -89 -13 -128 -1 -61 2 -75 18 -86 59 -44
-68 -42 3541 -41 3118 1 3423 3 3455 17 63 29 69 43 76 175 8 159 -28 923 -47
996 -6 23 -22 47 -43 63 l-33 25 -3344 0 c-2878 -1 -3348 -3 -3370 -15z m6680
-99 c12 -14 18 -107 41 -636 14 -344 14 -395 -7 -411 -14 -12 -548 -14 -3418
-12 -2613 1 -3408 4 -3425 13 -18 10 -21 18 -17 43 19 104 51 281 73 407 13
80 34 197 45 260 28 163 59 291 75 317 l14 23 1558 2 c856 2 2343 4 3303 6
1528 3 1747 1 1758 -12z"/>
</g>
</svg>