<?xml version="1.0" standalone="no"?>
<!DOCTYPE svg PUBLIC "-//W3C//DTD SVG 20010904//EN"
 "http://www.w3.org/TR/2001/REC-SVG-20010904/DTD/svg10.dtd">
<svg version="1.0" xmlns="http://www.w3.org/2000/svg"
 width="512.000000pt" height="512.000000pt" viewBox="0 0 512.000000 512.000000"
 preserveAspectRatio="xMidYMid meet">

<g transform="translate(0.000000,512.000000) scale(0.100000,-0.100000)"
fill="#000000" stroke="none">
<path d="M2380 5114 c-863 -79 -1593 -625 -1910 -1429 -89 -225 -138 -483
-147 -768 l-6 -198 -69 -67 c-473 -456 -226 -1246 426 -1361 33 -6 111 -11
173 -11 l113 0 0 800 0 800 -112 0 c-98 -1 -181 -11 -292 -36 l-28 -7 7 119
c16 291 76 532 194 788 190 411 557 776 973 969 779 362 1682 203 2288 -403
353 -354 555 -799 591 -1307 6 -85 9 -156 6 -160 -3 -3 -34 2 -69 12 -38 10
-121 19 -210 22 l-148 6 0 -802 0 -801 118 0 c64 1 136 5 160 9 l42 8 0 -341
c0 -207 -4 -356 -11 -379 -13 -49 -63 -105 -114 -128 -37 -17 -82 -19 -661
-19 l-620 0 -17 35 c-26 55 -81 109 -144 141 l-58 29 -240 0 c-229 0 -242 -1
-291 -23 -206 -93 -251 -371 -86 -524 83 -77 108 -83 355 -86 182 -3 227 -1
271 13 72 23 145 80 181 142 l30 51 635 4 c555 4 641 6 682 21 116 40 208 122
261 235 l32 67 3 418 3 417 69 46 c88 58 204 182 253 270 180 325 124 711
-140 966 l-70 67 -6 198 c-7 224 -28 371 -81 563 -206 750 -806 1350 -1556
1556 -195 54 -339 74 -550 78 -102 2 -205 2 -230 0z"/>
<path d="M2371 4238 c-13 -73 -25 -140 -27 -150 -3 -10 -31 -24 -76 -38 -40
-12 -111 -42 -160 -66 l-87 -44 -119 85 c-66 47 -123 85 -128 85 -5 0 -61 -51
-123 -114 l-114 -114 86 -122 c48 -66 87 -124 87 -127 0 -4 -18 -41 -39 -83
-21 -41 -49 -109 -62 -150 -13 -41 -26 -79 -29 -83 -5 -5 -268 -56 -298 -57
-1 0 -1 -75 0 -167 l3 -167 149 -26 c82 -14 151 -29 152 -35 12 -54 43 -137
81 -217 l46 -96 -88 -122 -88 -122 119 -119 119 -118 123 88 123 88 93 -47
c52 -26 124 -55 160 -65 51 -14 67 -23 71 -39 3 -12 14 -77 25 -145 12 -69 23
-128 26 -133 7 -10 321 -10 328 0 3 5 14 64 26 133 11 68 22 133 25 145 4 16
20 25 71 39 36 10 108 39 160 65 l93 47 123 -88 123 -88 119 118 119 119 -88
122 -88 122 46 96 c38 80 69 163 81 217 1 6 70 21 152 35 l149 26 3 167 c1 92
1 167 0 167 -30 1 -293 52 -298 57 -3 4 -16 42 -29 83 -13 41 -41 109 -62 150
-21 42 -39 79 -39 83 0 3 39 61 87 127 l86 122 -114 114 c-62 63 -118 114
-123 114 -5 0 -62 -38 -128 -85 l-119 -85 -87 44 c-49 24 -120 54 -160 66 -45
14 -73 28 -76 38 -2 10 -14 77 -27 150 l-22 132 -167 0 -167 0 -22 -132z m342
-671 c90 -33 147 -68 205 -128 188 -192 187 -504 -3 -693 -104 -104 -210 -148
-355 -148 -145 0 -251 44 -355 148 -190 189 -191 501 -3 693 58 59 114 95 202
127 87 33 221 33 309 1z"/>
</g>
</svg>
