<svg xmlns="http://www.w3.org/2000/svg" xmlns:xlink="http://www.w3.org/1999/xlink" version="1.1" x="0px" y="0px" viewBox="0 0 66 82.5" style="enable-background:new 0 0 66 66;" xml:space="preserve"><path d="M45,37.08c-4.41,0-8,3.59-8,8.01c0,4.42,3.59,8.01,8,8.01c4.41,0,8.01-3.59,8.01-8.01C53.01,40.67,49.41,37.08,45,37.08z   M45,51.59c-3.58,0-6.5-2.92-6.5-6.51c0-3.59,2.91-6.51,6.5-6.51c3.59,0,6.51,2.92,6.51,6.51C51.51,48.67,48.59,51.59,45,51.59z"/><path d="M64.11,41.65l-3.51-0.52c-0.38-1.5-0.98-2.94-1.78-4.28l2.13-2.86c0.22-0.3,0.19-0.72-0.07-0.98l-3.81-3.8  c-0.26-0.26-0.68-0.29-0.98-0.07l-2.86,2.12c-1.33-0.8-2.76-1.39-4.27-1.77l-0.53-3.52c-0.06-0.37-0.37-0.64-0.74-0.64h-4.56  c0-0.01,0-0.02,0-0.03c0-9.79-7.96-17.75-17.75-17.75S7.64,15.52,7.64,25.3c0,9.74,7.89,17.67,17.61,17.74v4.73  c0,0.37,0.27,0.69,0.64,0.74l3.52,0.51c0.37,1.48,0.96,2.92,1.77,4.29l-2.12,2.86c-0.22,0.3-0.19,0.72,0.07,0.98l3.81,3.79  c0.26,0.26,0.68,0.29,0.97,0.07l2.86-2.11c1.33,0.79,2.76,1.38,4.28,1.77l0.52,3.51c0.05,0.37,0.37,0.64,0.74,0.64h5.37  c0.37,0,0.69-0.27,0.74-0.64l0.53-3.52c1.52-0.39,2.95-0.99,4.27-1.77l2.86,2.11c0.3,0.22,0.71,0.19,0.97-0.07l2.84-2.82  c0.29-0.29,0.29-0.77,0-1.06c-0.29-0.29-0.77-0.3-1.06,0l-2.38,2.37l-2.75-2.03c-0.25-0.18-0.59-0.2-0.85-0.03  c-1.44,0.92-3.03,1.58-4.74,1.97c-0.3,0.07-0.53,0.31-0.58,0.62l-0.51,3.38h-4.08l-0.5-3.37c-0.05-0.31-0.27-0.55-0.58-0.62  c-1.7-0.38-3.3-1.04-4.75-1.97c-0.26-0.17-0.6-0.16-0.85,0.03l-2.75,2.03l-2.89-2.88l2.03-2.75c0.18-0.25,0.2-0.58,0.03-0.85  c-0.95-1.5-1.61-3.1-1.96-4.75c-0.06-0.31-0.31-0.54-0.63-0.59l-3.38-0.49v-4.09l3.38-0.5c0.31-0.05,0.56-0.28,0.62-0.58  c0.35-1.65,1.01-3.24,1.96-4.74c0.17-0.26,0.15-0.6-0.03-0.85l-2.03-2.75l2.89-2.89l2.75,2.03c0.25,0.19,0.59,0.2,0.86,0.03  c1.45-0.94,3.04-1.59,4.73-1.95c0.31-0.07,0.54-0.31,0.59-0.62l0.5-3.38h4.08l0.51,3.39c0.05,0.31,0.28,0.56,0.58,0.62  c1.69,0.36,3.28,1.02,4.72,1.95c0.26,0.17,0.6,0.16,0.85-0.03l2.75-2.03l2.89,2.88l-2.04,2.75c-0.19,0.25-0.2,0.59-0.03,0.85  c0.94,1.46,1.6,3.06,1.97,4.74c0.07,0.3,0.31,0.54,0.62,0.58l3.37,0.5v4.07l-3.37,0.51c-0.31,0.05-0.56,0.28-0.62,0.58  c-0.17,0.79-0.41,1.57-0.7,2.31c-0.37,0.87-0.79,1.69-1.26,2.44c-0.17,0.26-0.15,0.6,0.03,0.85l1.28,1.73  c0.25,0.33,0.72,0.4,1.05,0.15c0.33-0.25,0.4-0.72,0.15-1.05l-0.98-1.32c0.41-0.7,0.78-1.44,1.11-2.23  c0.27-0.67,0.49-1.36,0.66-2.05l3.16-0.47l0.32-0.03c0.38-0.04,0.67-0.36,0.67-0.75v-5.38C64.75,42.02,64.48,41.71,64.11,41.65z   M41.06,29.49c-1.51,0.37-2.95,0.97-4.28,1.77l-2.86-2.12c-0.3-0.22-0.71-0.19-0.98,0.07l-3.81,3.8c-0.26,0.26-0.29,0.68-0.07,0.98  l2.12,2.86c-0.81,1.36-1.4,2.8-1.77,4.28l-3.52,0.52c-0.04,0.01-0.07,0.02-0.1,0.03c-0.12-0.08-0.25-0.13-0.4-0.13  c-8.96,0-16.25-7.29-16.25-16.25S16.43,9.05,25.39,9.05s16.25,7.29,16.25,16.25c0,0.15-0.01,0.3-0.02,0.45l-0.01,0.14  c-0.01,0.03-0.02,0.05-0.03,0.08L41.06,29.49z"/><path d="M36.11,15.64c0.29-0.29,0.29-0.77,0-1.06s-0.77-0.29-1.06,0l-1.21,1.21c-2.25-2-5.21-3.23-8.46-3.23  c-7.03,0-12.75,5.72-12.75,12.75c0,0.41,0.34,0.75,0.75,0.75h5c0.41,0,0.75-0.34,0.75-0.75c0-3.45,2.8-6.25,6.25-6.25  c1.45,0,2.79,0.5,3.85,1.34l-2.52,2.52c-0.4-0.22-0.85-0.36-1.33-0.36c-1.52,0-2.75,1.23-2.75,2.75s1.23,2.75,2.75,2.75  s2.75-1.23,2.75-2.75c0-0.49-0.14-0.93-0.36-1.33l2.52-2.52c0.84,1.06,1.34,2.4,1.34,3.85c0,0.41,0.34,0.75,0.75,0.75h5  c0.41,0,0.75-0.34,0.75-0.75c0-3.25-1.23-6.2-3.23-8.46L36.11,15.64z M25.39,17.55c-4.02,0-7.34,3.08-7.71,7h-3.51  c0.39-5.85,5.27-10.5,11.23-10.5c2.83,0,5.42,1.06,7.4,2.79l-2.48,2.48C28.96,18.22,27.25,17.55,25.39,17.55z M25.39,26.55  c-0.69,0-1.25-0.56-1.25-1.25s0.56-1.25,1.25-1.25s1.25,0.56,1.25,1.25S26.08,26.55,25.39,26.55z M36.61,24.55H33.1  c-0.15-1.57-0.78-3.01-1.74-4.17l2.49-2.48C35.43,19.7,36.44,22.01,36.61,24.55z"/><path d="M23.08,47.82C11.49,46.65,2.75,36.97,2.75,25.3c0-2.74,0.48-5.42,1.44-7.96c0.15-0.39-0.05-0.82-0.44-0.97  c-0.39-0.14-0.82,0.05-0.97,0.44c-1.02,2.71-1.53,5.56-1.53,8.48c0,12.44,9.32,22.76,21.67,24.01c0.03,0,0.05,0,0.08,0  c0.38,0,0.71-0.29,0.75-0.67C23.79,48.23,23.49,47.86,23.08,47.82z"/><path d="M4.63,14.49c0.36,0.2,0.82,0.08,1.02-0.29c1.99-3.53,4.9-6.47,8.41-8.5c3.41-1.99,7.33-3.04,11.33-3.04  c11.75,0,21.43,8.81,22.53,20.49c0.04,0.39,0.36,0.68,0.75,0.68c0.02,0,0.05,0,0.07,0c0.41-0.04,0.72-0.41,0.68-0.82  C48.24,10.56,37.91,1.17,25.39,1.17c-4.27,0-8.45,1.12-12.08,3.24C9.56,6.57,6.46,9.7,4.34,13.47C4.14,13.83,4.27,14.29,4.63,14.49z  "/></svg>
