<?xml version="1.0" standalone="no"?>
<!DOCTYPE svg PUBLIC "-//W3C//DTD SVG 20010904//EN"
 "http://www.w3.org/TR/2001/REC-SVG-20010904/DTD/svg10.dtd">
<svg version="1.0" xmlns="http://www.w3.org/2000/svg"
 width="479.000000pt" height="351.000000pt" viewBox="0 0 479.000000 351.000000"
 preserveAspectRatio="xMidYMid meet">

<g transform="translate(0.000000,351.000000) scale(0.100000,-0.100000)"
fill="#000000" stroke="none">
<path d="M656 3174 c-14 -14 -16 -84 -16 -620 l0 -604 -106 0 c-118 0 -163
-14 -183 -56 -8 -18 -11 -253 -11 -845 l0 -821 29 -29 29 -29 446 0 446 0 32
29 33 29 3 286 3 286 334 0 335 0 0 -105 0 -105 -279 0 c-260 0 -280 -1 -302
-19 -24 -19 -24 -22 -24 -194 0 -133 3 -178 14 -190 12 -16 134 -17 1563 -17
l1550 0 34 34 34 34 0 1026 c0 1116 2 1068 -55 1094 -18 8 -104 12 -280 12
l-255 0 0 388 c0 335 -2 391 -16 410 l-15 22 -1664 0 c-1499 0 -1665 -2 -1679
-16z m3252 -451 l-3 -348 -457 -5 -458 -5 -27 -28 -28 -27 -3 -500 -3 -500
-784 0 -785 0 0 270 c0 307 -4 330 -64 355 -28 12 -89 15 -286 15 l-250 0 0
560 0 560 1575 0 1575 0 -2 -347z m592 -1453 l0 -980 -725 0 -725 0 0 980 0
980 725 0 725 0 0 -980z m-3265 497 l0 -57 -388 -3 -387 -2 0 63 0 62 388 -2
387 -3 0 -58z m3 -712 l2 -525 -390 0 -390 0 0 528 0 527 387 -2 388 -3 3
-525z m1692 0 l0 -135 -785 0 -785 0 0 135 0 135 785 0 785 0 0 -135z m-420
-360 l0 -105 -180 0 -180 0 0 105 0 105 180 0 180 0 0 -105z m420 0 l0 -105
-150 0 -150 0 0 105 0 105 150 0 150 0 0 -105z m0 -315 l0 -90 -695 0 -695 0
0 83 c0 46 3 87 7 90 3 4 316 7 695 7 l688 0 0 -90z m-1690 -30 l0 -60 -390 0
-390 0 0 60 0 60 390 0 390 0 0 -60z"/>
<path d="M3184 2142 c-32 -21 -34 -50 -34 -828 0 -611 3 -784 13 -804 l13 -25
593 -3 c542 -2 596 -1 613 14 17 16 18 53 18 816 0 785 0 798 -20 818 -20 20
-33 20 -602 20 -321 0 -588 -4 -594 -8z m1096 -827 l0 -715 -502 0 -503 0 2
712 c2 392 3 714 3 716 0 1 225 2 500 2 l500 0 0 -715z"/>
<path d="M3742 424 c-41 -29 -19 -96 31 -96 36 0 57 19 57 52 0 28 -27 60 -51
60 -8 0 -25 -7 -37 -16z"/>
</g>
</svg>
